<svg width="66" height="15" viewBox="0 0 66 15" fill="none" xmlns="http://www.w3.org/2000/svg">
<path d="M3.63903 11.1591C5.70721 11.1591 7.09925 9.58807 7.09925 7.22159C7.09925 4.83523 5.70721 3.2642 3.63903 3.2642C1.57085 3.2642 0.1788 4.83523 0.1788 7.22159C0.1788 9.58807 1.57085 11.1591 3.63903 11.1591ZM3.63903 10.1051C2.068 10.1051 1.3521 8.75284 1.3521 7.22159C1.3521 5.69034 2.068 4.31818 3.63903 4.31818C5.21005 4.31818 5.92596 5.69034 5.92596 7.22159C5.92596 8.75284 5.21005 10.1051 3.63903 10.1051ZM8.89027 11H10.0636V6.16761C10.0636 5.13352 10.8789 4.37784 11.9925 4.37784C12.3058 4.37784 12.6289 4.4375 12.7085 4.45739V3.2642C12.5742 3.25426 12.266 3.24432 12.092 3.24432C11.1772 3.24432 10.3817 3.76136 10.1033 4.51705H10.0238V3.36364H8.89027V11Z" fill="black"/>
<path d="M23.764 3.36364H24.9572C24.9025 1.82741 23.4856 0.678977 21.5169 0.678977C19.568 0.678977 18.0368 1.8125 18.0368 3.52273C18.0368 4.89489 19.0311 5.71023 20.622 6.16761L21.8748 6.52557C22.9487 6.82386 23.9032 7.2017 23.9032 8.21591C23.9032 9.32955 22.8294 10.0653 21.4174 10.0653C20.2044 10.0653 19.1305 9.52841 19.0311 8.375H17.7583C17.8777 10.0455 19.2299 11.179 21.4174 11.179C23.764 11.179 25.0964 9.88636 25.0964 8.2358C25.0964 6.3267 23.2868 5.71023 22.2328 5.43182L21.1987 5.15341C20.443 4.95455 19.2299 4.55682 19.2299 3.46307C19.2299 2.48864 20.1248 1.77273 21.4771 1.77273C22.71 1.77273 23.6447 2.35938 23.764 3.36364ZM26.9645 11H28.1378V3.36364H26.9645V11ZM27.5611 2.09091C28.0185 2.09091 28.3963 1.73295 28.3963 1.29545C28.3963 0.857955 28.0185 0.5 27.5611 0.5C27.1037 0.5 26.7259 0.857955 26.7259 1.29545C26.7259 1.73295 27.1037 2.09091 27.5611 2.09091ZM33.3691 14.0227C35.1987 14.0227 36.6703 13.1875 36.6703 11.2188V3.36364H35.5368V4.5767H35.4174C35.1589 4.17898 34.6816 3.2642 33.1902 3.2642C31.2612 3.2642 29.9288 4.79545 29.9288 7.14205C29.9288 9.52841 31.3208 10.8807 33.1703 10.8807C34.6618 10.8807 35.139 10.0057 35.3975 9.58807H35.497V11.1392C35.497 12.4119 34.6021 12.9886 33.3691 12.9886C31.9821 12.9886 31.4949 12.2578 31.1816 11.8352L30.247 12.4915C30.7243 13.2919 31.6639 14.0227 33.3691 14.0227ZM33.3294 9.8267C31.8578 9.8267 31.1021 8.71307 31.1021 7.12216C31.1021 5.57102 31.8379 4.31818 33.3294 4.31818C34.7612 4.31818 35.5169 5.47159 35.5169 7.12216C35.5169 8.8125 34.7413 9.8267 33.3294 9.8267ZM39.9913 6.40625C39.9913 5.07386 40.8166 4.31818 41.9402 4.31818C43.0289 4.31818 43.6902 5.02912 43.6902 6.22727V11H44.8635V6.14773C44.8635 4.19886 43.8244 3.2642 42.2782 3.2642C41.1248 3.2642 40.4089 3.78125 40.051 4.55682H39.9515V3.36364H38.818V11H39.9913V6.40625ZM55.7575 7.87784C55.7575 9.30966 54.6637 9.96591 53.7887 9.96591C52.8143 9.96591 52.1183 9.25 52.1183 8.13636V3.36364H50.945V8.21591C50.945 10.1648 51.979 11.0994 53.4109 11.0994C54.5643 11.0994 55.32 10.483 55.6779 9.70739H55.7575V11H56.9308V3.36364H55.7575V7.87784ZM59.0797 13.8636H60.253V9.8267H60.3525C60.611 10.2443 61.1081 11.1591 62.5797 11.1591C64.4888 11.1591 65.8212 9.62784 65.8212 7.2017C65.8212 4.79545 64.4888 3.2642 62.5598 3.2642C61.0684 3.2642 60.611 4.17898 60.3525 4.5767H60.2132V3.36364H59.0797V13.8636ZM60.2331 7.18182C60.2331 5.47159 60.9888 4.31818 62.4206 4.31818C63.9121 4.31818 64.6479 5.57102 64.6479 7.18182C64.6479 8.8125 63.8922 10.1051 62.4206 10.1051C61.0087 10.1051 60.2331 8.91193 60.2331 7.18182Z" fill="#2F71E5"/>
</svg>
